<?xml version="1.0" encoding="UTF-8"?>
<svg class="floating-content arrow-section-divider" xmlns="http://www.w3.org/2000/svg" viewBox="0 0 1440 320" width="100%" preserveAspectRatio="none">
<path fill="#efefef" fill-opacity="1" d="M0,160L60,149.3C120,139,240,117,360,112C480,107,600,117,720,138.7C840,160,960,192,1080,213.3C1200,235,1320,245,1380,250.7L1440,256L1440,320L1380,320C1320,320,1200,320,1080,320C960,320,840,320,720,320C600,320,480,320,360,320C240,320,120,320,60,320L0,320Z">
</path>
</svg>